<svg xmlns="http://www.w3.org/2000/svg" width="25" height="22.665" viewBox="0 0 25 22.665">
  <defs>
    <style>
      .cls-1 {
        fill: #fff;
      }

      .cls-2, .cls-3 {
        stroke: none;
      }

      .cls-3 {
        fill: #757575;
      }
    </style>
  </defs>
  <g id="Comment" class="cls-1" transform="translate(1990)">
    <path class="cls-2" d="M -1969.058959960938 21.26299476623535 L -1972.72265625 19.79463005065918 L -1973.015625 19.6772403717041 L -1973.322875976562 19.74923133850098 C -1974.0322265625 19.91543006896973 -1974.7646484375 19.99970054626465 -1975.5 19.99970054626465 L -1979.499633789062 19.99970054626465 C -1984.738159179688 19.99970054626465 -1989 15.73829078674316 -1989 10.50030040740967 C -1989 5.261820793151855 -1984.738159179688 1.000000715255737 -1979.499633789062 1.000000715255737 L -1975.5 1.000000715255737 C -1970.261596679688 1.000000715255737 -1965.999755859375 5.261820793151855 -1965.999755859375 10.50030040740967 C -1965.999755859375 12.74246120452881 -1966.795654296875 14.91887092590332 -1968.240844726562 16.62859153747559 L -1968.42626953125 16.84796142578125 L -1968.467041015625 17.13230133056641 L -1969.058959960938 21.26299476623535 Z"/>
    <path class="cls-3" d="M -1969.868286132812 19.86129760742188 L -1969.456909179688 16.99044990539551 L -1969.37548828125 16.42178153991699 L -1969.004638671875 15.98304080963135 C -1967.711791992188 14.45357036590576 -1966.999755859375 12.50643062591553 -1966.999755859375 10.50030040740967 C -1966.999755859375 5.813220500946045 -1970.81298828125 2.000000715255737 -1975.5 2.000000715255737 L -1979.499633789062 2.000000715255737 C -1984.186767578125 2.000000715255737 -1988 5.813220500946045 -1988 10.50030040740967 C -1988 15.18689060211182 -1984.186767578125 18.99970054626465 -1979.499633789062 18.99970054626465 L -1975.5 18.99970054626465 C -1974.84130859375 18.99970054626465 -1974.185668945312 18.92430114746094 -1973.551025390625 18.77560043334961 L -1972.9365234375 18.63162040710449 L -1972.350708007812 18.86641120910645 L -1969.868286132812 19.86129760742188 M -1968.249633789062 22.66470146179199 L -1973.0947265625 20.72286033630371 C -1973.867065429688 20.90383148193359 -1974.672607421875 20.99970054626465 -1975.5 20.99970054626465 L -1979.499633789062 20.99970054626465 C -1985.299194335938 20.99970054626465 -1990 16.29899978637695 -1990 10.50030040740967 C -1990 4.700700759887695 -1985.299194335938 7.308959766305634e-07 -1979.499633789062 7.308959766305634e-07 L -1975.5 7.308959766305634e-07 C -1969.701293945312 7.308959766305634e-07 -1964.999755859375 4.700700759887695 -1964.999755859375 10.50030040740967 C -1964.999755859375 13.08183097839355 -1965.931640625 15.44574069976807 -1967.477172851562 17.27415084838867 L -1968.249633789062 22.66470146179199 Z"/>
  </g>
</svg>
