<svg xmlns="http://www.w3.org/2000/svg" width="26" height="24" viewBox="0 0 26 24">
  <defs>
    <style>
      .cls-1 {
        fill: none;
        stroke: #757575;
        stroke-width: 2px;
      }
    </style>
  </defs>
  <path id="Heart" class="cls-1" d="M-2731.2-559.4h0l-.057-.045c-3.4-2.669-10.739-8.7-10.739-15.007a6.546,6.546,0,0,1,6.546-6.546,7.13,7.13,0,0,1,5.455,3,7.13,7.13,0,0,1,5.455-3,6.545,6.545,0,0,1,6.545,6.546c0,6.3-7.337,12.337-10.738,15.007l-.057.045h0a1.99,1.99,0,0,1-1.2.4A1.99,1.99,0,0,1-2731.2-559.4Z" transform="translate(2743 582)"/>
</svg>
