<svg xmlns="http://www.w3.org/2000/svg" width="31.999" height="31" viewBox="0 0 31.999 31">
  <defs>
    <style>
      .cls-1 {
        fill: #ff6f00;
      }
    </style>
  </defs>
  <path id="star" class="cls-1" d="M31.881,12.557a2.3,2.3,0,0,0-1.844-1.511L21.711,9.808,18.092,2.294a2.338,2.338,0,0,0-4.184,0L10.289,9.808,1.962,11.046A2.3,2.3,0,0,0,.12,12.557a2.207,2.207,0,0,0,.537,2.285l6.1,6.092L5.344,29.385a2.224,2.224,0,0,0,.948,2.2,2.36,2.36,0,0,0,2.449.131L16,27.811l7.26,3.908a2.36,2.36,0,0,0,2.449-.131,2.225,2.225,0,0,0,.947-2.2L25.24,20.934l6.1-6.092A2.214,2.214,0,0,0,31.881,12.557Zm-8.293,6.806a2.216,2.216,0,0,0-.627,1.934l1.416,8.451-7.26-3.906a2.363,2.363,0,0,0-2.235,0l-7.26,3.906L9.038,21.3a2.212,2.212,0,0,0-.626-1.934l-6.1-6.092,8.326-1.24a2.306,2.306,0,0,0,1.743-1.268L16,3.251l3.62,7.513a2.31,2.31,0,0,0,1.742,1.268l8.328,1.24Z" transform="translate(0 -1)"/>
</svg>
